<svg xmlns="http://www.w3.org/2000/svg" viewBox="0 0 90 90"><defs><style>.cls-1{fill:#fff;}</style></defs><g id="Capa_2" data-name="Capa 2"><g id="Capa_1-2" data-name="Capa 1"><circle class="cls-1" cx="45" cy="45" r="45"/><path d="M58.94,41.39H74.77v6.93H58.93v6.44H77V61.7H50.08V28.2H76.51v6.87H58.94Z"/><path d="M39.51,50.65l5.17,5.47c-5,4.78-10.71,7.25-17.57,6A16.16,16.16,0,0,1,14,50.68c-3.75-11.45,3.7-22,15.17-23a18.77,18.77,0,0,1,14.91,5.2c.17.16.32.34.54.58l-5,6c-5.69-6.28-11.75-4.73-14.76-1.73-3.48,3.46-3.66,10.1-.27,14a8.45,8.45,0,0,0,7.63,2.9C35.09,54.23,37.35,52.61,39.51,50.65Z"/></g></g></svg>