<svg xmlns="http://www.w3.org/2000/svg" viewBox="0 0 330.92 34.88"><g id="Capa_2" data-name="Capa 2"><g id="Capa_1-2" data-name="Capa 1"><path d="M254.43.55h9c.33,0,.75.5.94.86q4.41,8.88,8.77,17.77l.52,1c.29-.55.52-.95.72-1.37,2.82-5.75,5.65-11.5,8.43-17.28a1.53,1.53,0,0,1,1.63-1c2.75.06,5.51,0,8.37,0V34.1h-7.68V13.5l-.34-.09c-.19.36-.38.72-.55,1.08C281.83,19.6,279.4,24.7,277,29.83a1.46,1.46,0,0,1-1.62,1,28.86,28.86,0,0,0-3.48,0,1.44,1.44,0,0,1-1.62-1c-2.42-5.19-4.9-10.36-7.37-15.53a2.34,2.34,0,0,0-.73-1V34.11h-7.81Z"/><path d="M182,34.18V.65a6.64,6.64,0,0,1,1-.1c5.07,0,10.15-.1,15.22.1,7.6.3,14.33,5.08,15.88,13,1.87,9.67-3.57,18.8-14.18,20.13-4.18.52-8.45.27-12.68.35C185.52,34.21,183.8,34.18,182,34.18ZM190.9,7.6V27c2.58,0,5.06.17,7.51,0,3.17-.28,5.7-2.94,6.62-6.54,1.26-5-.65-9.9-4.77-11.86-3-1.46-6.17-.81-9.36-1Z"/><path d="M245.14,13.82v6.92H229.27v6.42h18V34.1H220.44V.61h26.44V7.48H229.26v6.34Z"/><path d="M46,13.8H61.78v6.93H45.94v6.44H64v6.94H37.09V.61H63.52V7.48H46Z"/><path d="M67.52,34.18l4.22-9.89C75,16.72,78.25,9.16,81.46,1.58A1.5,1.5,0,0,1,83.13.48c2.32.07,4.64,0,7,0a1.16,1.16,0,0,1,1.28.76q6.72,16.14,13.5,32.25c.06.14.1.29.21.64H96.68a1.14,1.14,0,0,1-1.31-.84c-.52-1.5-1.09-3-1.73-4.44a1.35,1.35,0,0,0-1-.7q-6.48-.07-13,0a1.33,1.33,0,0,0-1,.7c-.67,1.49-1.2,3-1.85,4.53-.14.32-.56.74-.86.75C73.25,34.2,70.52,34.18,67.52,34.18ZM90.83,21.39l-4.58-12-4.67,12Z"/><path d="M151.21,28.14c-.7,1.77-1.35,3.52-2.08,5.24-.13.33-.55.76-.84.76-2.76.06-5.51,0-8.47,0,.18-.48.29-.83.44-1.17Q147,17.3,153.77,1.53a1.35,1.35,0,0,1,1.47-1c2.4.06,4.8,0,7.2.06a1.53,1.53,0,0,1,1.13.71q6.85,16.21,13.64,32.45a1.93,1.93,0,0,1,0,.34,8.58,8.58,0,0,1-.87.1H168.9a1.15,1.15,0,0,1-1.31-.88c-.5-1.51-1.09-3-1.71-4.45a1.25,1.25,0,0,0-.88-.7C160.45,28.12,155.85,28.14,151.21,28.14Zm11.88-6.73-4.59-12-4.67,12Z"/><path d="M133.24,11.79c-5.44-6-11.44-5.07-14.8-1.68s-3.61,10.21-.19,14c3.06,3.39,8.77,4.74,14.94-1l5.13,5.4a19.9,19.9,0,0,1-9.8,5.78A17.39,17.39,0,1,1,122.73.15a19.44,19.44,0,0,1,15.56,5.66Z"/><path d="M26.52,23.06l5.17,5.47c-5,4.78-10.71,7.25-17.57,5.95A16.16,16.16,0,0,1,1,23.09c-3.75-11.45,3.7-22,15.17-23a18.83,18.83,0,0,1,14.91,5.2c.17.16.32.34.54.58l-5,6c-5.69-6.28-11.75-4.73-14.76-1.73-3.48,3.46-3.66,10.1-.27,14A8.45,8.45,0,0,0,19.2,27C22.1,26.64,24.36,25,26.52,23.06Z"/><path d="M330.92.55C330.2,1.9,329.61,3,329,4.14c-3.19,6-6.39,11.92-9.53,17.92a6,6,0,0,0-.66,2.58c-.09,2.75,0,5.5,0,8.25v1.23H310c0-2.14-.15-4.25,0-6.34a13.41,13.41,0,0,0-2-8c-3.34-5.88-6.46-11.89-9.67-17.85-.2-.38-.39-.76-.7-1.38h4.52c1.44,0,3.13-.38,4.22.25s1.46,2.28,2.13,3.5c1.93,3.51,3.86,7,5.87,10.71l4.11-7.86c1-1.93,2-3.87,3.12-5.78a1.53,1.53,0,0,1,1-.79C325.34.52,328,.55,330.92.55Z"/></g></g></svg>